<svg id="Шар_1" data-name="Шар 1" xmlns="http://www.w3.org/2000/svg" viewBox="0 0 368.16 768.54"><defs><style>.cls-1{fill:#1c939a;}.cls-2{fill:#1d949a;}.cls-3{fill:#1f949b;}.cls-4{fill:#1e949b;}.cls-5{fill:#2a99a0;}.cls-6{fill:#fefefe;}.cls-7{fill:#fcfdfd;}</style></defs><title>god</title><path class="cls-1" d="M-377.95,435.82a34.39,34.39,0,0,1,1.19,5.59,67.19,67.19,0,0,1,0,11.17c-.72,6.2.32,12.1,1.76,18.08,1.55,6.41,2.59,12.93,3.89,19.54l.71-1.84A111.27,111.27,0,0,1-367.61,525l3.23-1.61q18.35-9,36.68-18c2.56-1.25,5-1.54,7.39.75.52.5,2.07.17,3.07-.08,2.64-.68,5.47-1.06,6.94,1.57,1,1.72.67,4.13,1,6.36.7-.28,1.95-.87,3.25-1.3,2.86-.95,5.28,0,6.33,2.28s.12,5-2.75,6.34q-7.65,3.54-15.44,6.77-36.68,15.32-73.4,30.56c-2.4,1-4.44,3.11-7.42,2.23-1.49-.43-3.08-.61-4.52-1.16-6.3-2.44-12.58-4.9-18.82-7.48-17.08-7-34.16-14.07-51.17-21.25-7-2.95-13.79-6.25-20.65-9.45-3.06-1.43-4.21-3.92-3.15-6.44s3.59-3.39,6.78-2.23c1.13.42,2.24.9,3.57,1.44a3.5,3.5,0,0,0-.09-1c-1.11-2.15-1.22-4.21.48-6.11s4-2,6.09-1.32a5.37,5.37,0,0,0,5.39-.7c1.28-.86,4-.54,5.61.21,10.8,5,21.48,10.27,32.2,15.46.76.36,1.51.76,2.46,1.24-.31-4.62-.31-9-1-13.35-.91-5.9,0-11.51,1.35-17.22C-429.93,473.56-422,457-415.36,440a63.87,63.87,0,0,0,1.86-7l-.73-.51c-.86.44-1.72.86-2.57,1.32-19.7,10.46-39.38,21-59.13,31.33-2.56,1.34-5.83,3.14-8.25,2.56-4.69-1.13-7.82,1.27-11.35,3-5.69,2.8-11.28,5.8-16.94,8.68a26.73,26.73,0,0,1-3.2,1.22c-2.3.8-4.42.48-5.87-1.57a5.13,5.13,0,0,1,.53-7.05,62.62,62.62,0,0,1,7.08-5.32c3-2,6.1-3.88,9.72-6.16-5.19.08-6.63-2.84-6.53-7.14-2.58,1.11-4.81,2.15-7.11,3.05-3.19,1.25-5.81.53-7-1.83-1.25-2.52-.28-5.26,2.82-6.87,11.5-6,23.18-11.62,34.57-17.81,23.46-12.77,48.17-22.6,73.15-31.85,4.53-1.67,9-3.49,13.63-5a7.81,7.81,0,0,1,4.71.07c9.75,3.49,19.57,6.84,29.1,10.84,17.2,7.24,34.39,14.55,51.27,22.5,13.57,6.39,26.72,13.71,40,20.78a8.32,8.32,0,0,1,3.87,4.19c1.19,3.82-2.45,6.55-6.62,5.21a39.21,39.21,0,0,1-3.67-1.56l-3.54-1.58c-.62,1.78-.83,3.74-1.88,5s-2.81,1.58-4.32,2.36c.29.2.93.67,1.58,1.1,4.38,2.9,8.87,5.64,13.11,8.72,3.26,2.36,3.72,5.21,1.9,8.23-1.22,2-4,2.65-7.22,1.19-3.78-1.7-7.39-3.77-11.09-5.64s-7.33-3.69-11-5.49c-2.24-1.1-4.2-2.35-7.17-1.34-1.82.62-4.55-.38-6.51-1.37q-21.19-10.65-42.24-21.63c-5.75-3-11.37-6.25-17-9.38l-.65-.08Zm-17.9,68.72c-.29-1.53-.49-2.59-.79-4.14l-2.09,2.24-.62-1.79-2.47-.51c-4.14,3.79-8.6,7.25-8.6,13.87l-1.62-2.16-.81,0c-.7,6.77-1.45,13.53-2,20.31a3.33,3.33,0,0,0,1.58,2.34c4.4,2.67,8.84,5.27,13.38,7.69a4,4,0,0,0,3.25-.13c4.94-2.69,9.77-5.56,14.63-8.38,1.1-.63,2.18-1.28,3.61-2.13-1.36-1.1-2.68-2.65-3.12-2.43-1.35.67-2.36,2-3.67,3.26-1.56-8.2-.73-16.83-5.46-24.64l-1.58,8.63-.35,0-2-13.18Zm-7.4-20.68,1.52-4.29.74.7,2.37-2.6,3.47,2.68c.89-1.69,1.76-.41,2.54.47.48-4.32,1.17-8.5,1.35-12.71.14-3.27.69-7.17-.79-9.72-2.59-4.47-2.26-8.65-1.29-13.13.57-2.64-.39-6-2.41-7.25-.4.8-.79,1.6-1.18,2.4l-.78-.77c-.56,1.23-1.13,2.45-1.73,3.77-.49-.91-1-1.88-1.59-3a46.91,46.91,0,0,1-1.82,4.47c-2.09,3.95-3.68,7.92-3.46,12.6.29,6,0,12-2.93,17.56-.83,1.58-.84,3.59-1.2,5.4,0,.07.23.2.42.34l1.16-1.37.81,4.18c1.19-1.81,2.16-3.3,3.12-4.79l.69.35C-404,480.45-403.7,481.74-403.25,483.86Z" transform="translate(574.89 -58.79)"/><path class="cls-1" d="M-224.85,66.15l2.22,2.44c.44-1.19.83-2.2,1.2-3.21s.73-2,1.32-3.71c.59,1.57.91,2.4,1.27,3.37l1.86-3.68.88,0c1.71,4.16,4.25,8.2,4.88,12.51s-.56,9-1.1,13.54c-.62,5.27-1.68,10.51-2,15.8-.25,3.72.43,7.49.61,11.24.24,5.12-.6,10.57.93,15.25a29.12,29.12,0,0,1,1.2,8.68c.09,3.24-.07,6.49-.16,9.74-.17,5.69,1,11,4.53,15.6a3.63,3.63,0,0,1,.45,2.53c-1.32,8.17-2.94,16.3-4,24.51-.8,6.12-.94,12.34-1.32,18.52a7.3,7.3,0,0,0,.22,3.41c3.05,6.66,1.09,13.51.85,20.28-.16,4.48-.7,8.94-1.11,13.89-1.11-2.61-2-4.82-3.08-7.28-1.37.87-2.68,2.29-4.06,2.37-1,.06-2.09-1.68-3.43-2.87,0,0-.24.47-.73,1.42V231.8l-.5-.22-2.17,4c-.08-1.29-.17-2-.17-2.82,0-14.52,0-29.05,0-43.58a19.81,19.81,0,0,0-.79-4.91c-.73,5.47-5.92,8.91-6.37,14.4,0,.21-1.11.34-1.87.55-.17.81-.4,1.89-.62,3l-.57.11-1.75-5.58-.92-.07c-.88,3.83-2.13,7.61-2.57,11.49-.68,5.86-.75,11.8-1.19,17.69-.12,1.51-.79,3-1,4.47-.4,3.51-2.94,5.43-5.75,7.77-.36-1.48-.69-2.84-1.06-4.39l-1.09,1.22c-1-6.62-.72-13.23-4.49-18.77.17-.09-.05,0-.15.09-.81,1.09-1.6,2.21-2.4,3.31a29.05,29.05,0,0,1-2.18-4c-3.23-9-3.95-18.4-5-27.8a207.11,207.11,0,0,0-4.54-24.09c-2.14,1.75-3.38,3.53-2.71,6.15,1.57,6.1,3,12.22,4.6,18.31a22.85,22.85,0,0,0,1.73,3.8l-6.83.54c1.21,5.81,2.24,10.94,3.37,16,.86,3.91,1.43,7.6.2,11.75-1.12,3.83-.65,8.14-.88,12.24-.09,1.67-.15,3.35-.25,5.69l-1.4-3.61c-.11,2.49-.2,4.23-.28,6l-.47.1-1-2.83-3.4,7.12-.87-.3-1-4.25-.53,0-.76,5c-.35-.82-.65-1.5-.94-2.16-2.16.65-2,5-5.53,3.82-.84,1.2-2,2.83-3.07,4.43-5.87-4.59-4.7-10.19-3.63-15.42a137.13,137.13,0,0,0,2.19-35.88c-.5-8.48-.53-17-1.53-25.43-.92-7.71.2-15,1.72-22.49a51.52,51.52,0,0,0-.32-20.43,151.77,151.77,0,0,1-2.5-41.31c.63-8-2.57-15.53-3.73-23.32-.24-1.59-.37-3.2-.62-5.41l4.57,3.74,2.6-4.54,1.86,5.2c1.62-2.46,3.06-4.63,4.89-7.39L-277.51,72l2.64-6.19,1.07.24c.57,3.25.91,6.56,1.76,9.73,1.27,4.7,3.22,9.22,4.32,13.95,2.35,10.12,4.24,20.35,6.51,30.48,1.9,8.48,4.08,16.9,6.15,25.34a11.52,11.52,0,0,0,.56,1.48l.76,0c.68-6.29,1.41-12.57,2-18.87.33-3.32-.22-6.92.9-9.93,1.48-4,3.47-8.34,6.56-11a20.84,20.84,0,0,0,6.85-12.34,80.37,80.37,0,0,0,1.13-12.23,28.87,28.87,0,0,1,7.68-18.86l.81,6.76.51.3Z" transform="translate(574.89 -58.79)"/><path class="cls-1" d="M-513.59,806.52l-1.44,3.1c-1.22-3.32-2.32-6.3-3.54-9.63l-4.39,5.56c-.31-2.81-.53-4.82-.78-7l-2.8,2.49c-.62-2.48-1.1-4.36-1.67-6.65l-1.6,4.48-3.47-4.73-2.35,1.27c-.79-4.24-1.54-8.22-2.29-12.2l-.55-.17a24.54,24.54,0,0,1-1.14,2.85,2.42,2.42,0,0,1-1.31,1.18c-.34.08-1.14-.5-1.23-.89-1.25-5.31-4.66-10-2.64-16.19,2.33-7.12,3.2-14.71,5.11-22,1.08-4.12,3.09-8,4.47-12a6.43,6.43,0,0,0,.22-4.24c-3.29-7.29-4.31-14.95-4.49-22.85-.2-8.49-.66-17-1-25.45-.07-1.77,0-3.38,1.84-4.45a3.81,3.81,0,0,0,1.49-2.24c1.49-6.09,2.92-12.19,4.24-18.3a6.25,6.25,0,0,1,2-3.71c1.62-1.5,2.53-3.9,3.4-6,1.68-4.2,4.15-7.16,8.88-8.23,2.5-.57,4.72-2.36,7.14-3.41a7.93,7.93,0,0,1,3.91-.84c6.32.89,12,3.48,17.51,6.67,5.68,3.29,11.6,6.18,17.37,9.31a7.49,7.49,0,0,1,2.2,2,31.12,31.12,0,0,1,4,5.73c.78,1.73.75,3.84,1,5.79.19,1.42,0,2.63,1.66,3.77,2.34,1.61,2.25,7.92.51,10.45a5.62,5.62,0,0,0-1.05,2.76,38.26,38.26,0,0,0,.06,8.29,20.1,20.1,0,0,0,2.71,6.82c1.48,2.44,2.35,10.08.78,12.45-.43.64-1.75,1.45-2.16,1.23-3.69-1.92-7.54-1.43-11.43-1.23a21.78,21.78,0,0,1-4.15-.64c-.21-9.42-1.06-18.67-5.57-27.42-.42,1-.75,1.72-1.14,2.63-2-4-3.84-7.83-5.74-11.68-3.85,1.89-4.93,1.52-7.77-1.9-.68-.83-2-1.09-3.09-1.61-.37-.19-1-.27-1.11-.57-1.29-2.56-2.55-1.38-4.11-.2a7.83,7.83,0,0,0-2.33,9.63c4.62,8.68.77,17,.24,25.44-.24,3.71-.95,7.39-1,11.09a5.44,5.44,0,0,1-4,5.59c-1.74.6-2.36,1.8-3.08,3.34a20.12,20.12,0,0,1-3.6,5c-.46.5-1.68.3-3,.49a34.17,34.17,0,0,1,0,5A16.36,16.36,0,0,0-522,745.23c2.89,5.41,3.74,11.91,5.4,18,.79,2.91,1.41,5.87,2.2,8.78a32.16,32.16,0,0,0,1.5,3.57l2.1-5.22c1.72,4.71,3.18,8.73,4.74,13,2.76-1.25,3.51.43,4.62,2.62s3.21,3.7,5,5.67c.8.08,1.27-2.88,2.64-.56.86-1.08,2.32-2.1,2.45-3.26a38.83,38.83,0,0,0-.38-9.76l-1.68,3.27c-.29-6.18-.55-11.81-.83-17.88l-3.8,1.82-2.67-1.42-2.32,3c-.07-1.43-.12-2.41-.21-4.28-1,2-1.55,3.31-2.14,4.55-1.34-1.78-2.61-3.45-3.86-5.13-.17-.23-.37-.58-.3-.79,1.37-4.41-2.23-6.4-4.47-9-3.24-3.72-3.31-6-.38-10a49.14,49.14,0,0,0,3.29-6.28c.38,1.12.67,2,.91,2.72,5.89,1.3,9.15-2.35,12.44-6.46l2.23,2.93c.92-2.4,1.79-4.64,2.65-6.89l.85.22,1.46,3.68.31-.45c1.45.86,3,1.64,4.34,2.61s2.62,2.14,4.28,3.52l5.21-6.65,6.16,6.75c1.15-6.63,4.72-8.9,11.35-6.88-.89,4.93-1.82,10.08-2.86,15.88l-2.7-3-1.4,4.14c-1.17-.62-1.59-3.49-3.7-1.17,1.47,2.18.79,6,4.84,6.4a4,4,0,0,1,0,1.51c-2.12.57-2.19,2-1.65,3.69,1.24,3.8,2.05,7.85,3.93,11.31,4.82,8.86,6.89,18,5.5,28.08-.87,6.32-1.16,12.72-1.71,19.21-4.4-.57-2.95,3.47-4.27,5.38l-.46-.68L-468,825c-1-2-2-4-3.1-6.19-.42,1.43-.89,3-1.26,4.23l-2.81-1.32V797.62l-.74-.17-1.84,2.44-1.07-3.57-3.54,4.24-1.87-2.26-2.36,5.56-1.18-2.72c-4.52,5.78-5,12.6-6.54,20l-1.49-3.68-2.14.84c-1.78-5.37-1.77-5.36-5.45-1.71-1.32,1.31-2.7,3.58-4.65,2.4-1.66-1-2.87-3.14-3.7-5S-512.89,809.56-513.59,806.52Z" transform="translate(574.89 -58.79)"/><path class="cls-1" d="M-398.71,640.52c.36,1.26.34,1.88.62,2.09,1.57,1.13,6-.25,7.66-2.75a15.64,15.64,0,0,1,2.33,2.93c2,4.4,3.88,8.86,5.9,13.53l3.72-4.93c1.42,4.64,2.72,8.86,4,13.08l.53,0,.48-8.16.67-.09c.78,3.91,1.66,7.8,2.3,11.73.43,2.63.31,5.35.82,8,.45,2.26,2,4.38,2.11,6.62.38,6,.27,12.13.37,18.2,0,1.83-1.08,3.87,1.39,5.25.63.35.63,2.11.63,3.23.05,9.17.17,18.34,0,27.51-.23,11.4-.68,22.79-1.16,34.18a28.18,28.18,0,0,1-1.22,6.73c-.27.94-1.68,1.52-2.05,2.47-1.75,4.5-3.53,9-4.87,13.63-.75,2.62-.4,5.54-1,8.21-1.47,6.07-3.25,12.06-5.06,18.65l-2.82-5.95c-1.17,4.24-2.13,7.69-3.23,11.66l-3.53-5.34c-1.81,2.22-3.53,4.31-5.25,6.4l-.6-.29v-7.25l-.64-.21-3.2,7.1c-.38-1.06-.68-1.93-1-2.94l-3.53,2.61-3.95-6.07-2.7,3.44c-.54-3.05-1-5.7-1.58-9-1.76,2.18-3.22,3.87-4.53,5.67-1.43,2-2.8,1.66-4.15,0-1.21-1.46-2.3-3-3.66-4.84l-1.47,2.93v-7.85l-.45-.07c-.32,1.64-.64,3.27-1.1,5.67l-1.12-6.3c-.56,1.08-.84,1.65-1.33,2.59-.95-3.67-1.81-7-2.74-10.55-2.17,1.61-2.59.12-2.9-1.5l-8.73-45.8c-.12-.65-.26-1.31-.37-2-1-6.09-3-12,.19-18.3,1.63-3.28,1.27-7.62,1.52-11.49.29-4.38.31-8.78.32-13.17,0-1.86-.57-3.75-.41-5.59a40.26,40.26,0,0,1,1.36-6.74c.56-2.11,1.31-4.17,2-6.25a4.94,4.94,0,0,1,1.59-2.59v6.54c.62-.92,1-1.21,1-1.54.5-5.84,1.25-11.68,1.34-17.53.18-11.36,1.94-22,10.79-30.24,2-1.86,3.51-4.21,6.83-4.11.92,0,1.86-1.55,2.85-2.31A10.88,10.88,0,0,1-404.25,638C-402.16,638.9-400.1,639.88-398.71,640.52Zm-13.72,133.64.51,0c.52,2.51,1,5,1.57,7.66l2.35-1.56v6.12l1.83-3.28a32.56,32.56,0,0,0,1.12,3.12c.59,1.17,1.11,3.05,2,3.26,3.28.79,3.69,3.43,4.63,6.93,1.27-2,2.39-3.18,2.84-4.58,1.67-5.26,3.15-10.59,4.65-15.9.41-1.45.92-2.5,2.85-1.64v3.6a10.16,10.16,0,0,0,1.69-4.47c.31-3.79.06-7.65.62-11.4a27.57,27.57,0,0,1,2.78-8.8,7,7,0,0,0,.84-5.29c-1.54-7.46-2.77-15-4.27-22.45-1.15-5.69.95-11.81-2.63-17.21-1.71-2.58-2.8-5.57-4.23-8.51l-2.86,4.21-1.19-6.35-.92.15c-.13,1-.26,1.94-.41,3l-1.39-1.1-2.37,4.09c-1-6.33-1.93-12-2.81-17.49-5.23-.65-7.7,1.9-7.42,7.1.1,1.89,0,3.8,0,5.84a34.13,34.13,0,0,1-3.94,1,2.47,2.47,0,0,0-2.37,2.66c-.18,5.85-2.81,11.24-2.9,17.19-.07,4.59-1.5,9.15-2.27,13.73a74.31,74.31,0,0,0-1.11,7.82c-.49,8.17,0,16.26,2.48,24.14.55,1.72.78,3.55,1.17,5.32l.65,0c.87-2,1.74-4,2.6-6.08l.65.06,1.82,8,1.28-1.74c.13,2.17.24,4.08.36,6l.64.08C-413.2,776.37-412.81,775.27-412.43,774.16Z" transform="translate(574.89 -58.79)"/><path class="cls-1" d="M-337.09,709.66l-2.11,1c-3.91-8.17-8.17-16.15-11.51-24.5-1.21-3.05-1.75-7.05.49-10.49A4.55,4.55,0,0,0-350,673c-.81-7.86-1.89-15.71-2.39-23.59-.18-2.76.88-5.65,1.74-8.37.23-.74,1.78-1.51,2.72-1.5,10.6.1,21.25-.26,31.75.81,5.34.54,9.85,4.39,11.27,10.32.75,3.14,1,6.4,1.78,9.54.27,1.16,1,2.69,1.93,3.13,8.17,3.82,13.47,10.3,17.57,18.05,1.69,3.19,3.17,6.71,5.63,9.22,4.59,4.68,5,10.92,7.34,16.46a9.83,9.83,0,0,1,.44,3.65c0,11.94,0,23.88,0,35.82,0,6.22.33,12.43.23,18.64a22,22,0,0,1-1.44,6.38c-2.09,6.2-4.13,12.44-6.59,18.51-1.54,3.79-3.8,7.3-5.92,11.28-.34-.92-.5-1.32-.71-1.88a63.44,63.44,0,0,1-4.77,5.83c-3,3-6,6.15-9.53,8.42s-7.54,3.45-11.46,5.15c-1.49-1.62-5.81-2.19-7.53-.51-2.5,2.43-5.54,3-8.8,3.37a9,9,0,0,0-2.9,1.19c-1.45.74-2.46.77-2.27-1.5l-6.31,3c-.21-1.46-.38-2.69-.59-4.13l-6,2.79c-.81-5.68-.81-5.68-5.48-5.73v-4.83l-2,.36c-1.53-7,1.43-13.15,3.52-19.43a48.19,48.19,0,0,0,1.69-6.23c1-5.36,5.3-8.95,7.38-13.77,1.88-4.38,2.19-4.25-.36-8.64l-2.19.63c0-7.85.46-15.52-.11-23.1-.79-10.33,2.64-19.8,4.83-29.54.21-.93.5-1.83.75-2.75,0-.23,0-.46,0-.69Zm15.2,80.57,2.47-3.19c.18.85.29,1.4.39,1.9,1.08-.56.59-3.66,3.16-1.79,1.18-2.11,2.37-4.22,3.87-6.91.86,4.53,1.57,8.35,2.35,12.46,1.32-4,7.24-4.21,7.13-9.27.2,1.09.39,2.18.48,2.64,1.59-2.29,3.41-4.9,5.38-7.75l.7,1.52c1.67-4.26,3.93-8.06,3.84-12.92-.1-5.88.16-12.11,4.3-16.82,2.57-2.92,2.37-5.51,1.56-8.83-1.21-4.94-3.28-9.88-2-15.11,1.41-5.82-.2-10.37-4.11-14.91-2.13-2.47-5.28-4.91-5.18-8.91,0-.13-.21-.25-.37-.44l-1.93.78c-.51-2.46-1-4.8-1.59-7.63l-3.93,6c-.57-2.8-1-4.89-1.4-7l-2.76-2.1-1.13.93v-3.58l-.63.57-2.15-1.47c-.39.74-.92,1.71-1.44,2.68l-.74-.51c-1.09-3.44-2.19-6.88-3.37-10.58l-1.37,2.42c-.4-.9-.65-1.44-1.11-2.48-.39,10.42.58,19.93,6.55,28.31a4.7,4.7,0,0,1,.88,2.61,90,90,0,0,1-.5,12c-1,6.49-2.55,12.9-3.65,19.38-.25,1.45-.11,3.49.75,4.51a6.83,6.83,0,0,1,1.38,6.6A46.42,46.42,0,0,0-317,759c-1.14,10.39-1.06,21-5.2,30.86l-.25.56Z" transform="translate(574.89 -58.79)"/><path class="cls-1" d="M-330.1,234.14c-2.22-10.77-1.11-21.76-7-31.83-.73,4.07-1.35,7.54-2,11l-.51,0c-.86-5.65-1.73-11.3-2.65-17.34l-1.31,2.55-1.23-5.87-2.7,3.22c-.27-1.12-.51-2.07-.82-3.32-1.11,1.16-2.27,1.91-2.91-.7l-2.32,4-1.55-1.09c-.26,1.18-.48,2.15-.78,3.48l-.64-1c-2.8,3.72-6.3,7.34-6.06,12.76-.54-.94-1.09-1.88-2.1-3.61-1,6.61-2.15,12.44-2.78,18.33a66.46,66.46,0,0,0-.09,12c.23,3.08,1.33,6.08,1.75,9.16.15,1.13-.56,2.38-.87,3.57l-.82,0c-.53-1.76-1.07-3.52-1.73-5.71-.78,1-1.32,1.71-2.06,2.69-.72-2.38-1.37-4.58-2-6.64l-2.61,3.29c-.87-1.19-1.77-2.36-2.6-3.57-.63-.93-1.16-1.92-2-3.37l-3.34,5.45c-1-2.37-1.84-4.43-2.75-6.61l-1.89,1.66c-1.43-4.65-3.39-8.9-3.95-13.32-1.21-9.55-2.05-19.18-2.31-28.8-.12-4.27,1.45-8.6,2.38-12.88,4.25-19.4,12.72-37.3,20-55.63q2.58-6.5,5.06-13c1.5-3.93.69-7.77-2.92-10-3.92-2.42-5.2-5.49-4.71-9.92.76-6.8.87-13.68,1.86-20.44.44-3,2.34-5.87,3.66-9l3.36,2.27,2.83-1.6c2.23-1.27,4.18-.76,6,.83,1.43,1.23,3,2.27,4.36,3.6a43.52,43.52,0,0,1,3.31,4.28c2.25-3.39,2.79-7.32,7.09-8.74.75,3.1,1.48,6.08,2.26,9.31.65-.26,1.25-.44,1.79-.72,1.4-.74,2.14-.25,2.45,1.21,2.22,10.38,7.35,19.57,11.75,29.08,2.21,4.79,3.3,10.11,4.87,15.2.36,1.17.61,2.38,1,3.82l-1.48-.31v2.45a108.37,108.37,0,0,1,0,11.11c-.68,7.12,1.15,13.79,2.72,20.59,1.71,7.39,3,14.88,4.41,22.23,1.67-1.35,1.7.26,1.89,1.36.83,5,1.61,10,2.41,15,.5,3.11,1.19,6.2,1.42,9.32.16,2.14-.46,4.32-.48,6.48-.06,8.5.06,17-.07,25.51a24.16,24.16,0,0,1-1.67,8.08c-.39-1.47-.77-2.94-1.31-5-1.57,3.1-2.85,5.82-4.32,8.43-.43.78-1.41,1.25-2.13,1.86a9.34,9.34,0,0,1-1.05-2.62c-.36-4.49-.6-9-3.15-12.91C-324.5,228.49-326.51,228.47-330.1,234.14ZM-339.27,168c0-3.29-.19-5.93,0-8.53.43-4.83,1.31-9.62,1.59-14.45.12-2-.22-4.48-1.37-5.94-3.72-4.72-3.11-9.91-1.88-14.94a16.51,16.51,0,0,0-.31-8.34c-.22-.89-1.32-1.56-2-2.34-.59.77-1.18,1.53-1.73,2.26-.19-.18-.61-.79-.78-.72-2.92,1.07-1,4.07-2.27,6.15-.85-1.84-1.58-3.41-2.28-4.94-.8,2.1-1.4,4.1-2.29,5.95-2.4,5-4.64,10-4.41,15.79.31,8,.08,16-4,23.37-1,1.8-1.14,4.1-1.67,6.17l.92.27,1.58-2.8c.32,2.39.59,4.34.86,6.29,1.4-2.23,2.79-4.42,4.17-6.61l.82.4,1,5.66.53,0,1.59-5.21,1.56,2,1.54-3.28c1.26.4,3.1.46,3.41,1.17,1,2.48,2.21,1,3.43.22Z" transform="translate(574.89 -58.79)"/><path class="cls-1" d="M-521.19,157.43a50.22,50.22,0,0,0-1.12,7.23c-.12,10.48-.05,21-.05,31.45l1,.17,1.12-1.37,6.84,8.32a.62.62,0,0,0,.3-.17q1.31-1.76,2.58-3.52c.67,1.3,1.41,2.56,2,3.9.68,1.63,1.19,3.34,2.06,5.82l2.26-6.85c5,8.65,4.51,17.63.86,26.77-2.6,6.51-5,13.11-7.45,19.75l-2-3.26-2.48,1.92c-1.13-3-3.38-3.5-7.67-1.73-2.47-2.33-2.72-2.31-5.39.53l-1.6-2.13c-2.29,1.21-4.22,3-6.22,3.07s-3.9-1.58-6.63-2.83c-1.4.69-3.76,1.83-6.24,3-.54-1.15-1-2.17-1.61-3.44l-5,3c-.37-1.85-.68-3.4-1-5.24l-5.62,3.41-1.66-2.48-2.87,1.5c-.19-2.15-.4-4.1-.53-6.06a22,22,0,0,0-1-6.09l-4.83,9.19a15.71,15.71,0,0,1-.33-2.28c.26-5.05.77-10.1.75-15.14a20,20,0,0,1,2.58-9.45,25.79,25.79,0,0,1,1.68-2.38c.39,2.27.64,3.68,1,5.83l3-4.32.81,1.56c.43-1.17.86-2.31,1.29-3.45l.46,0c.11,1.36.21,2.71.38,4.79l3-6.16,1.54,2.46,7.28,2c4-7.39.79-15.42,1.51-23.18l-1,.27c-.56-1-1.51-1.85-1.61-2.84a78.85,78.85,0,0,1,.67-20.45c.89-5.67,0-11.8-1.08-17.53-.75-3.86-1.38-7.47-.23-11.2s1.24-7.58,1.46-11.49c.41-7.58,1.84-15.11,2.66-22.68a78.56,78.56,0,0,0,0-8.43l-2,.65c-.39-1.86,2.38-3.93-.28-5.16-1.8-.82-3.85-.34-4.58,2.58A24.28,24.28,0,0,1-557,92.07c-1.85-3.29-5.61-4.82-7.31-8.4-.54-1.13-3.49-1.18-5.36-1.59-1.44-.31-2.93-.4-5.18-.7,1.76-2.22,2.94-3.56,3.95-5,1.41-2,2.61-4.17,4.07-6.14a9.88,9.88,0,0,1,3-2.79c1.83-1,3.37-1.94,3.85-4.2a2.78,2.78,0,0,1,2.17-1.42c4.94-.14,9.91.19,14.82-.19a17.5,17.5,0,0,1,9.86,2,3.92,3.92,0,0,0,2.94.63c1.82-.67,3.81-2.18,5.41-1.83,4,.86,8.21-2,11.82,1.22l3-3.44,2.08,5.75-4.17-1.65c2.61,4,4.74,7.43,6.93,10.77,1.76,2.68,1.42,9.58-.68,11.89-1.89,2.06-4.34,1-6.17.42-2.83-.92-5.27-1.81-7.39,1.36l-2.24-4c-.38,2.08-.64,3.55-.91,5l-.47,0-1.08-4.2c-1.79,6.11-1.15,11.4.47,16.71a10.57,10.57,0,0,1,0,3.88c-1,11.1-2.83,22.2-2.87,33.3,0,5.93,3,11.88,4.62,17.82,0,.11.5.1.77.14Z" transform="translate(574.89 -58.79)"/><path class="cls-2" d="M-404.9,351.09c.45-4.9.85-9.81,1.39-14.7.28-2.54,2.61-4.19,5.38-4.08a4.76,4.76,0,0,1,4.86,4.33c.45,5.86.56,11.76,1.24,17.59.78,6.66,2,13.28,3,19.92.19,1.21.34,2.44.55,3.65.4,2.26-.4,4.3-2.42,4.93a6.82,6.82,0,0,1-5.22-.56c-1.84-1.27-2.92-1.57-4.59.08s-3.88,1.89-5.46.39a6.71,6.71,0,0,1-2.12-4.8c.86-7.13,2.22-14.21,3.31-21.32a53.79,53.79,0,0,0,.31-5.4Z" transform="translate(574.89 -58.79)"/><path class="cls-2" d="M-398.4,570.5c.44-.34.8-.63,1.17-.9,3.57-2.67,7.39-1.16,7.92,3.2.84,7,1.58,13.94,2.33,20.91a16.47,16.47,0,0,1,0,3.14,4.52,4.52,0,0,1-6.4,3.93,3.41,3.41,0,0,1-.76-.39c-2.85-1.81-5.57-1.63-8.56-.06-4,2.11-7.42,0-7.12-4.6.41-6.23,1.29-12.43,2-18.65a18.94,18.94,0,0,0,.25-2c0-2.54.11-5,2.74-6.43S-400.34,568.94-398.4,570.5Z" transform="translate(574.89 -58.79)"/><path class="cls-3" d="M-519.1,377.72a14.81,14.81,0,0,1,3.48,2q12.66,11.64,25.14,23.47c2.39,2.28,2.46,5.15.59,7.16s-4.58,1.91-7.2-.16c-7.48-5.93-14.83-12-22.54-17.66-3.8-2.76-3.9-6.74-4.72-10.47C-524.85,379.77-522.37,377.78-519.1,377.72Z" transform="translate(574.89 -58.79)"/><path class="cls-3" d="M-302.66,411.77c-3.89.06-6.27-2.95-5.25-5.84a9.38,9.38,0,0,1,2.34-3.5q11.43-10.86,23-21.55c1.24-1.15,2.69-2.45,4.23-2.76a5.66,5.66,0,0,1,4.59,1.15c.94,1,1.07,3.06,1,4.64-.19,5.88-4.62,8.66-8.75,11.77-6.09,4.59-12,9.49-18,14.19A24.24,24.24,0,0,1-302.66,411.77Z" transform="translate(574.89 -58.79)"/><path class="cls-4" d="M-482.1,573.79c-4.78.06-7.31-4-5-7,5.38-6.91,10.92-13.77,18.24-18.82,2.49-1.71,5-1.4,6.78.43s1.67,4.38-.06,6.83c-2.76,3.88-5.4,7.87-8.45,11.52-1.14,1.36-3.28,1.88-4.95,2.81-1,.56-2,1.11-3,1.74C-480,572.25-481.36,573.28-482.1,573.79Z" transform="translate(574.89 -58.79)"/><path class="cls-4" d="M-308.4,569.51c-1.08,1.33-1.88,3.26-3.16,3.66a6.52,6.52,0,0,1-5.2-.65c-2-1.52-3.68-3.24-6.51-3.39-1.07-.06-2.26-1.36-3-2.37-2.89-3.79-5.65-7.68-8.4-11.57-1.74-2.45-1.7-5.08,0-6.82s4.46-2.1,7-.24a46.89,46.89,0,0,1,6.3,5.37c3.76,3.92,7.36,8,10.91,12.11A21.92,21.92,0,0,1-308.4,569.51Z" transform="translate(574.89 -58.79)"/><path class="cls-5" d="M-390.24,245.75c.64-2.87,1.27-5.74,2-9C-385.76,239.39-386.46,242.48-390.24,245.75Z" transform="translate(574.89 -58.79)"/><path class="cls-1" d="M-521.15,157.49l.41-.26-.45.21Z" transform="translate(574.89 -58.79)"/><path class="cls-6" d="M-377.95,435.82l-.17-.63.65.08Z" transform="translate(574.89 -58.79)"/><path class="cls-6" d="M-337.09,709.66l.34-.36c0,.23,0,.46,0,.69A2.73,2.73,0,0,1-337.09,709.66Z" transform="translate(574.89 -58.79)"/><path class="cls-7" d="M-321.89,790.23l-.59.22c.08-.18.16-.37.25-.56Z" transform="translate(574.89 -58.79)"/></svg>